<svg xmlns="http://www.w3.org/2000/svg" viewBox="0 0 600 400">
  <defs>
    <linearGradient id="bg" x1="0" y1="0" x2="600" y2="400">
      <stop offset="0%" stop-color="#0a0a14"/>
      <stop offset="100%" stop-color="#12121f"/>
    </linearGradient>
    <linearGradient id="neon" x1="0" y1="0" x2="1" y2="1">
      <stop offset="0%" stop-color="#00f0ff"/>
      <stop offset="100%" stop-color="#ff00aa"/>
    </linearGradient>
    <filter id="glow">
      <feGaussianBlur stdDeviation="3" result="b"/>
      <feMerge><feMergeNode in="b"/><feMergeNode in="SourceGraphic"/></feMerge>
    </filter>
  </defs>
  <rect width="600" height="400" fill="url(#bg)"/>
  <g opacity="0.15" stroke="#00f0ff" stroke-width="0.5">
    <line x1="0" y1="50" x2="600" y2="50"/><line x1="0" y1="100" x2="600" y2="100"/>
    <line x1="0" y1="150" x2="600" y2="150"/><line x1="0" y1="200" x2="600" y2="200"/>
    <line x1="0" y1="250" x2="600" y2="250"/><line x1="0" y1="300" x2="600" y2="300"/>
    <line x1="0" y1="350" x2="600" y2="350"/>
    <line x1="100" y1="0" x2="100" y2="400"/><line x1="200" y1="0" x2="200" y2="400"/>
    <line x1="300" y1="0" x2="300" y2="400"/><line x1="400" y1="0" x2="400" y2="400"/>
    <line x1="500" y1="0" x2="500" y2="400"/>
  </g>
  <rect x="40" y="40" width="520" height="320" rx="8" fill="#0d0d18" stroke="url(#neon)" stroke-width="2" filter="url(#glow)"/>
  <text x="60" y="80" font-family="monospace" font-size="14" fill="#00f0ff" opacity="0.7">root@cybernomads:~# ./init_session.sh</text>
  <text x="60" y="110" font-family="monospace" font-size="13" fill="#4ade80">[OK] Firewall bypassed</text>
  <text x="60" y="135" font-family="monospace" font-size="13" fill="#4ade80">[OK] Crypto keys loaded</text>
  <text x="60" y="160" font-family="monospace" font-size="13" fill="#fbbf24">[..] Scanning targets...</text>
  <text x="60" y="200" font-family="monospace" font-size="13" fill="#9090a8">  &gt; web_exploit_01  [150 pts]  ████░░ OPEN</text>
  <text x="60" y="225" font-family="monospace" font-size="13" fill="#9090a8">  &gt; pwn_heap_03     [300 pts]  ██░░░░ LOCKED</text>
  <text x="60" y="250" font-family="monospace" font-size="13" fill="#9090a8">  &gt; crypto_rsa_02   [200 pts]  ███░░░ OPEN</text>
  <text x="60" y="275" font-family="monospace" font-size="13" fill="#9090a8">  &gt; forensics_mem   [250 pts]  █░░░░░ LOCKED</text>
  <text x="60" y="320" font-family="monospace" font-size="14" fill="#ff00aa">flag{cyberpunk_ctf_2026}_</text>
  <rect x="248" y="318" width="10" height="18" fill="#00f0ff" opacity="0.8">
    <animate attributeName="opacity" values="0.8;0;0.8" dur="1s" repeatCount="indefinite"/>
  </rect>
</svg>
